<svg xmlns="http://www.w3.org/2000/svg" version="1.1" xmlns:xlink="http://www.w3.org/1999/xlink" width="1024px" height="1024px"><svg baseProfile="tiny" height="1024px" version="1.2" width="1024px" xmlns="http://www.w3.org/2000/svg" xmlns:ev="http://www.w3.org/2001/xml-events" xmlns:xlink="http://www.w3.org/1999/xlink"><defs></defs><path d="M 333,534 L 332,535 L 331,535 L 330,535 L 329,535 L 328,535 L 327,535 L 326,535 L 325,535 L 324,535 L 323,535 L 322,535 L 321,535 L 320,535 L 319,535 L 318,535 L 318,536 L 318,537 L 318,538 L 318,539 L 318,540 L 318,541 L 318,542 L 318,543 L 318,544 L 318,545 L 318,546 L 318,547 L 318,548 L 318,549 L 318,550 L 318,551 L 319,552 L 319,553 L 319,554 L 319,555 L 319,556 L 319,557 L 319,558 L 319,559 L 319,560 L 319,561 L 320,562 L 320,563 L 320,564 L 320,565 L 320,566 L 321,567 L 321,568 L 321,569 L 321,570 L 321,571 L 321,572 L 322,573 L 322,574 L 322,575 L 322,576 L 322,577 L 323,578 L 323,579 L 323,580 L 323,581 L 324,582 L 324,583 L 324,584 L 324,585 L 325,586 L 325,587 L 325,588 L 326,589 L 326,590 L 326,591 L 327,592 L 327,593 L 327,594 L 328,595 L 328,596 L 328,597 L 329,598 L 329,599 L 329,600 L 330,601 L 330,602 L 330,603 L 331,604 L 331,605 L 332,606 L 332,607 L 333,608 L 333,609 L 333,610 L 334,611 L 334,612 L 335,613 L 335,614 L 336,615 L 336,616 L 337,617 L 338,618 L 338,619 L 339,620 L 339,621 L 340,622 L 340,623 L 341,624 L 341,625 L 342,626 L 343,627 L 343,628 L 344,629 L 345,630 L 345,631 L 346,632 L 347,633 L 347,634 L 348,635 L 349,636 L 350,637 L 350,638 L 351,639 L 352,640 L 353,641 L 353,642 L 354,643 L 355,644 L 356,645 L 357,646 L 357,647 L 358,648 L 359,649 L 360,650 L 361,651 L 362,652 L 363,653 L 364,654 L 365,655 L 366,656 L 367,657 L 368,658 L 369,659 L 370,660 L 371,661 L 372,662 L 373,663 L 374,663 L 375,664 L 376,665 L 377,666 L 378,667 L 379,667 L 380,668 L 381,669 L 382,670 L 383,671 L 384,671 L 385,672 L 386,673 L 387,673 L 388,674 L 389,675 L 390,675 L 391,676 L 392,677 L 393,677 L 394,678 L 395,679 L 396,679 L 397,680 L 398,681 L 399,681 L 400,682 L 401,682 L 402,683 L 403,683 L 404,684 L 405,685 L 406,685 L 407,686 L 408,686 L 409,687 L 410,687 L 411,688 L 412,688 L 413,689 L 414,689 L 415,690 L 416,690 L 417,691 L 418,691 L 419,692 L 420,692 L 421,692 L 422,693 L 423,693 L 424,694 L 425,694 L 426,695 L 427,695 L 428,696 L 429,696 L 430,696 L 431,697 L 432,697 L 433,697 L 434,698 L 435,698 L 436,699 L 437,699 L 438,699 L 439,700 L 440,700 L 441,700 L 442,701 L 443,701 L 444,702 L 445,702 L 446,702 L 447,703 L 448,703 L 449,703 L 450,704 L 451,704 L 452,704 L 453,705 L 454,705 L 455,705 L 456,705 L 457,706 L 458,706 L 459,706 L 460,707 L 461,707 L 462,707 L 463,708 L 464,708 L 465,708 L 466,709 L 467,709 L 468,709 L 469,710 L 470,710 L 471,710 L 472,711 L 473,711 L 474,711 L 475,712 L 476,712 L 477,713 L 478,714 L 479,714 L 480,715 L 481,716 L 482,717 L 483,718 L 483,719 L 484,720 L 485,721 L 486,722 L 486,723 L 487,724 L 487,725 L 488,726 L 488,727 L 488,728 L 489,729 L 489,730 L 490,731 L 490,732 L 491,733 L 491,734 L 491,735 L 492,736 L 492,737 L 493,738 L 493,739 L 493,740 L 494,741 L 494,742 L 495,743 L 495,744 L 495,745 L 496,746 L 496,747 L 497,748 L 497,749 L 497,750 L 498,751 L 498,752 L 498,753 L 499,754 L 499,755 L 500,756 L 500,757 L 500,758 L 501,759 L 501,760 L 501,761 L 501,762 L 502,763 L 502,764 L 502,765 L 503,766 L 503,767 L 503,768 L 504,769 L 504,770 L 504,771 L 505,772 L 505,773 L 506,774 L 506,775 L 506,776 L 507,777 L 507,778 L 508,779 L 509,780 L 509,781 L 510,782 L 511,782 L 512,782 L 513,781 L 514,780 L 515,779 L 515,778 L 516,777 L 516,776 L 517,775 L 517,774 L 517,773 L 517,772 L 518,771 L 518,770 L 519,769 L 519,768 L 519,767 L 519,766 L 520,765 L 520,764 L 520,763 L 521,762 L 521,761 L 521,760 L 522,759 L 522,758 L 522,757 L 523,756 L 523,755 L 523,754 L 524,753 L 524,752 L 524,751 L 525,750 L 525,749 L 525,748 L 526,747 L 526,746 L 527,745 L 527,744 L 527,743 L 528,742 L 528,741 L 529,740 L 529,739 L 529,738 L 530,737 L 530,736 L 531,735 L 531,734 L 531,733 L 532,732 L 532,731 L 533,730 L 533,729 L 534,728 L 534,727 L 534,726 L 535,725 L 535,724 L 536,723 L 537,722 L 537,721 L 538,720 L 539,719 L 539,718 L 540,717 L 541,716 L 542,715 L 543,714 L 544,714 L 545,713 L 546,712 L 547,712 L 548,711 L 549,711 L 550,710 L 551,710 L 552,709 L 553,709 L 554,709 L 555,709 L 556,708 L 557,708 L 558,708 L 559,708 L 560,707 L 561,707 L 562,707 L 563,707 L 564,706 L 565,706 L 566,706 L 567,705 L 568,705 L 569,705 L 570,704 L 571,704 L 572,704 L 573,704 L 574,703 L 575,703 L 576,703 L 577,702 L 578,702 L 579,702 L 580,701 L 581,701 L 582,701 L 583,700 L 584,700 L 585,700 L 586,699 L 587,699 L 588,698 L 589,698 L 590,698 L 591,697 L 592,697 L 593,696 L 594,696 L 595,696 L 596,695 L 597,695 L 598,694 L 599,694 L 600,694 L 601,693 L 602,693 L 603,692 L 604,692 L 605,691 L 606,691 L 607,690 L 608,690 L 609,689 L 610,689 L 611,688 L 612,688 L 613,687 L 614,687 L 615,686 L 616,686 L 617,685 L 618,685 L 619,684 L 620,684 L 621,683 L 622,682 L 623,682 L 624,681 L 625,681 L 626,680 L 627,679 L 628,679 L 629,678 L 630,678 L 631,677 L 632,676 L 633,676 L 634,675 L 635,674 L 636,674 L 637,673 L 638,672 L 639,671 L 640,671 L 641,670 L 642,669 L 643,669 L 644,668 L 645,667 L 646,666 L 647,665 L 648,665 L 649,664 L 650,663 L 651,662 L 652,661 L 653,660 L 654,659 L 655,658 L 656,657 L 657,657 L 658,656 L 659,655 L 660,654 L 661,653 L 662,652 L 663,651 L 663,650 L 664,649 L 665,648 L 666,647 L 667,646 L 668,645 L 669,644 L 670,643 L 670,642 L 671,641 L 672,640 L 673,639 L 674,638 L 674,637 L 675,636 L 676,635 L 677,634 L 677,633 L 678,632 L 679,631 L 679,630 L 680,629 L 681,628 L 681,627 L 682,626 L 682,625 L 683,624 L 684,623 L 684,622 L 685,621 L 685,620 L 686,619 L 687,618 L 687,617 L 688,616 L 688,615 L 689,614 L 689,613 L 690,612 L 690,611 L 691,610 L 691,609 L 692,608 L 692,607 L 693,606 L 693,605 L 693,604 L 694,603 L 694,602 L 695,601 L 695,600 L 695,599 L 696,598 L 696,597 L 697,596 L 697,595 L 697,594 L 698,593 L 698,592 L 698,591 L 699,590 L 699,589 L 699,588 L 700,587 L 700,586 L 700,585 L 700,584 L 701,583 L 701,582 L 701,581 L 701,580 L 702,579 L 702,578 L 702,577 L 702,576 L 702,575 L 703,574 L 703,573 L 703,572 L 703,571 L 703,570 L 703,569 L 704,568 L 704,567 L 704,566 L 704,565 L 704,564 L 704,563 L 704,562 L 705,561 L 705,560 L 705,559 L 705,558 L 705,557 L 705,556 L 705,555 L 705,554 L 705,553 L 706,552 L 706,551 L 706,550 L 706,549 L 706,548 L 706,547 L 706,546 L 706,545 L 706,544 L 706,543 L 706,542 L 706,541 L 706,540 L 706,539 L 706,538 L 706,537 L 706,536 L 706,535 L 705,535 L 704,535 L 703,535 L 702,535 L 701,535 L 700,535 L 699,535 L 698,535 L 697,535 L 696,535 L 695,534 L 694,534 L 693,534 L 692,534 L 691,534 L 690,534 L 689,534 L 688,534 L 687,534 L 686,534 L 685,534 L 684,534 L 683,534 L 682,534 L 681,534 L 680,534 L 679,534 L 678,534 L 677,534 L 676,534 L 675,534 L 674,534 L 673,534 L 672,535 L 671,535 L 670,535 L 669,535 L 668,535 L 667,535 L 666,535 L 665,535 L 664,535 L 663,535 L 662,535 L 661,535 L 660,535 L 659,535 L 658,535 L 657,536 L 656,536 L 655,536 L 654,536 L 653,536 L 652,536 L 651,536 L 650,536 L 649,536 L 648,537 L 647,537 L 646,537 L 645,537 L 644,537 L 643,537 L 642,537 L 641,538 L 640,538 L 639,538 L 638,538 L 637,538 L 636,538 L 635,539 L 634,539 L 633,539 L 632,539 L 631,539 L 630,539 L 629,540 L 628,540 L 627,540 L 626,540 L 625,540 L 624,541 L 623,541 L 622,541 L 621,541 L 620,541 L 619,542 L 618,542 L 617,542 L 616,542 L 615,542 L 614,543 L 613,543 L 612,543 L 611,543 L 610,544 L 609,544 L 608,544 L 607,545 L 606,545 L 605,545 L 604,545 L 603,546 L 602,546 L 601,546 L 600,547 L 599,547 L 598,547 L 597,548 L 596,548 L 595,549 L 594,549 L 593,549 L 592,550 L 591,550 L 590,551 L 589,551 L 588,552 L 587,552 L 586,553 L 585,553 L 584,554 L 583,554 L 582,555 L 581,555 L 580,556 L 579,557 L 578,557 L 577,558 L 576,558 L 575,559 L 574,560 L 573,560 L 572,561 L 571,562 L 570,563 L 569,563 L 568,564 L 567,565 L 566,566 L 565,566 L 564,567 L 563,568 L 562,569 L 561,570 L 560,571 L 559,571 L 558,572 L 557,573 L 556,574 L 555,575 L 554,576 L 553,577 L 552,578 L 551,579 L 550,580 L 549,581 L 548,582 L 548,583 L 547,584 L 546,585 L 545,586 L 544,587 L 543,588 L 543,589 L 542,590 L 541,591 L 540,592 L 540,593 L 539,594 L 538,595 L 537,596 L 537,597 L 536,598 L 535,599 L 535,600 L 534,601 L 534,602 L 533,603 L 532,604 L 532,605 L 531,606 L 531,607 L 530,608 L 530,609 L 529,610 L 529,611 L 528,612 L 528,613 L 527,614 L 527,615 L 526,616 L 526,617 L 525,618 L 525,619 L 524,620 L 524,621 L 524,622 L 523,623 L 523,624 L 523,625 L 522,626 L 522,627 L 521,628 L 521,629 L 521,630 L 520,631 L 520,632 L 520,633 L 519,634 L 519,635 L 519,636 L 518,637 L 518,638 L 518,639 L 518,640 L 517,641 L 517,642 L 517,643 L 516,644 L 516,645 L 516,646 L 516,647 L 515,648 L 515,649 L 515,650 L 515,651 L 514,652 L 514,653 L 514,654 L 514,655 L 514,656 L 513,657 L 513,658 L 513,659 L 513,660 L 512,661 L 511,660 L 511,659 L 511,658 L 511,657 L 510,656 L 510,655 L 510,654 L 510,653 L 510,652 L 509,651 L 509,650 L 509,649 L 509,648 L 508,647 L 508,646 L 508,645 L 507,644 L 507,643 L 507,642 L 507,641 L 506,640 L 506,639 L 506,638 L 505,637 L 505,636 L 505,635 L 504,634 L 504,633 L 504,632 L 503,631 L 503,630 L 503,629 L 502,628 L 502,627 L 502,626 L 501,625 L 501,624 L 501,623 L 500,622 L 500,621 L 499,620 L 499,619 L 498,618 L 498,617 L 498,616 L 497,615 L 497,614 L 496,613 L 496,612 L 495,611 L 495,610 L 494,609 L 494,608 L 493,607 L 492,606 L 492,605 L 491,604 L 491,603 L 490,602 L 490,601 L 489,600 L 488,599 L 488,598 L 487,597 L 486,596 L 486,595 L 485,594 L 484,593 L 483,592 L 483,591 L 482,590 L 481,589 L 480,588 L 480,587 L 479,586 L 478,585 L 477,584 L 476,583 L 475,582 L 474,581 L 473,580 L 473,579 L 472,578 L 471,577 L 470,576 L 469,575 L 468,574 L 467,573 L 466,572 L 465,571 L 464,571 L 463,570 L 462,569 L 461,568 L 460,567 L 459,566 L 458,566 L 457,565 L 456,564 L 455,563 L 454,563 L 453,562 L 452,561 L 451,560 L 450,560 L 449,559 L 448,558 L 447,558 L 446,557 L 445,556 L 444,556 L 443,555 L 442,555 L 441,554 L 440,553 L 439,553 L 438,552 L 437,552 L 436,551 L 435,551 L 434,550 L 433,550 L 432,549 L 431,549 L 430,549 L 429,548 L 428,548 L 427,547 L 426,547 L 425,547 L 424,546 L 423,546 L 422,546 L 421,545 L 420,545 L 419,545 L 418,544 L 417,544 L 416,544 L 415,543 L 414,543 L 413,543 L 412,543 L 411,542 L 410,542 L 409,542 L 408,542 L 407,542 L 406,541 L 405,541 L 404,541 L 403,541 L 402,540 L 401,540 L 400,540 L 399,540 L 398,540 L 397,539 L 396,539 L 395,539 L 394,539 L 393,539 L 392,539 L 391,538 L 390,538 L 389,538 L 388,538 L 387,538 L 386,538 L 385,537 L 384,537 L 383,537 L 382,537 L 381,537 L 380,537 L 379,537 L 378,537 L 377,536 L 376,536 L 375,536 L 374,536 L 373,536 L 372,536 L 371,536 L 370,536 L 369,536 L 368,536 L 367,535 L 366,535 L 365,535 L 364,535 L 363,535 L 362,535 L 361,535 L 360,535 L 359,535 L 358,535 L 357,535 L 356,535 L 355,535 L 354,534 L 353,534 L 352,534 L 351,534 L 350,534 L 349,534 L 348,534 L 347,534 L 346,534 L 345,534 L 344,534 L 343,534 L 342,534 L 341,534 L 340,534 L 339,534 L 338,534 L 337,534 L 336,534 L 335,534 L 334,534 Z" fill="#d9b8ff"></path><path d="M 500,295 L 499,296 L 498,296 L 497,296 L 496,296 L 495,296 L 494,296 L 493,296 L 492,297 L 491,297 L 490,297 L 489,297 L 488,297 L 487,297 L 486,298 L 485,298 L 484,298 L 483,298 L 482,299 L 481,299 L 480,299 L 479,299 L 478,300 L 477,300 L 476,300 L 475,301 L 474,301 L 473,301 L 472,302 L 471,302 L 470,302 L 469,303 L 468,303 L 467,304 L 466,304 L 465,305 L 464,305 L 463,305 L 462,306 L 461,306 L 460,307 L 459,307 L 458,308 L 457,308 L 456,309 L 455,309 L 454,310 L 453,311 L 452,311 L 451,312 L 450,312 L 449,313 L 448,314 L 447,314 L 446,315 L 445,316 L 444,316 L 443,317 L 442,318 L 441,318 L 440,319 L 439,320 L 438,321 L 437,322 L 436,322 L 435,323 L 434,324 L 433,325 L 432,326 L 431,327 L 430,328 L 429,329 L 428,330 L 427,331 L 426,332 L 425,333 L 424,334 L 423,335 L 423,336 L 422,337 L 421,338 L 420,339 L 419,340 L 419,341 L 418,342 L 417,343 L 416,344 L 416,345 L 415,346 L 414,347 L 414,348 L 413,349 L 413,350 L 412,351 L 411,352 L 411,353 L 410,354 L 410,355 L 409,356 L 409,357 L 408,358 L 408,359 L 407,360 L 407,361 L 406,362 L 406,363 L 405,364 L 405,365 L 404,366 L 404,367 L 404,368 L 403,369 L 403,370 L 403,371 L 402,372 L 402,373 L 402,374 L 401,375 L 401,376 L 401,377 L 400,378 L 400,379 L 400,380 L 399,381 L 399,382 L 399,383 L 399,384 L 398,385 L 398,386 L 398,387 L 398,388 L 398,389 L 397,390 L 397,391 L 397,392 L 397,393 L 397,394 L 397,395 L 397,396 L 396,397 L 396,398 L 396,399 L 396,400 L 396,401 L 396,402 L 396,403 L 396,404 L 396,405 L 396,406 L 396,407 L 396,408 L 396,409 L 396,410 L 395,411 L 395,412 L 395,413 L 395,414 L 396,415 L 396,416 L 396,417 L 396,418 L 396,419 L 396,420 L 396,421 L 396,422 L 396,423 L 396,424 L 396,425 L 396,426 L 396,427 L 396,428 L 397,429 L 397,430 L 397,431 L 397,432 L 397,433 L 397,434 L 397,435 L 398,436 L 398,437 L 398,438 L 398,439 L 399,440 L 399,441 L 399,442 L 399,443 L 400,444 L 400,445 L 400,446 L 401,447 L 401,448 L 401,449 L 401,450 L 402,451 L 402,452 L 402,453 L 403,454 L 403,455 L 404,456 L 404,457 L 405,458 L 405,459 L 405,460 L 406,461 L 406,462 L 407,463 L 407,464 L 408,465 L 408,466 L 409,467 L 409,468 L 410,469 L 411,470 L 411,471 L 412,472 L 412,473 L 413,474 L 414,475 L 414,476 L 415,477 L 416,478 L 416,479 L 417,480 L 418,481 L 419,482 L 419,483 L 420,484 L 421,485 L 422,486 L 423,487 L 423,488 L 424,489 L 425,490 L 426,491 L 427,492 L 428,493 L 429,494 L 430,495 L 431,496 L 432,497 L 433,498 L 434,499 L 435,499 L 436,500 L 437,501 L 438,502 L 439,503 L 440,503 L 441,504 L 442,505 L 443,506 L 444,506 L 445,507 L 446,508 L 447,508 L 448,509 L 449,509 L 450,510 L 451,511 L 452,511 L 453,512 L 454,512 L 455,513 L 456,513 L 457,514 L 458,514 L 459,515 L 460,515 L 461,516 L 462,516 L 463,517 L 464,517 L 465,518 L 466,518 L 467,518 L 468,519 L 469,519 L 470,520 L 471,520 L 472,520 L 473,521 L 474,521 L 475,521 L 476,521 L 477,522 L 478,522 L 479,522 L 480,523 L 481,523 L 482,523 L 483,523 L 484,524 L 485,524 L 486,524 L 487,524 L 488,524 L 489,524 L 490,525 L 491,525 L 492,525 L 493,525 L 494,525 L 495,525 L 496,525 L 497,526 L 498,526 L 499,526 L 500,526 L 501,526 L 502,526 L 503,526 L 504,526 L 505,526 L 506,526 L 507,526 L 508,526 L 509,526 L 510,526 L 511,526 L 512,526 L 513,526 L 514,526 L 515,526 L 516,526 L 517,526 L 518,526 L 519,526 L 520,526 L 521,526 L 522,526 L 523,526 L 524,526 L 525,526 L 526,525 L 527,525 L 528,525 L 529,525 L 530,525 L 531,525 L 532,525 L 533,524 L 534,524 L 535,524 L 536,524 L 537,524 L 538,523 L 539,523 L 540,523 L 541,523 L 542,522 L 543,522 L 544,522 L 545,521 L 546,521 L 547,521 L 548,521 L 549,520 L 550,520 L 551,520 L 552,519 L 553,519 L 554,519 L 555,518 L 556,518 L 557,517 L 558,517 L 559,516 L 560,516 L 561,515 L 562,515 L 563,515 L 564,514 L 565,514 L 566,513 L 567,513 L 568,512 L 569,511 L 570,511 L 571,510 L 572,510 L 573,509 L 574,508 L 575,508 L 576,507 L 577,507 L 578,506 L 579,505 L 580,505 L 581,504 L 582,503 L 583,502 L 584,502 L 585,501 L 586,500 L 587,499 L 588,498 L 589,497 L 590,497 L 591,496 L 592,495 L 593,494 L 594,493 L 595,492 L 596,491 L 597,490 L 598,489 L 599,488 L 600,487 L 600,486 L 601,485 L 602,484 L 603,483 L 604,482 L 604,481 L 605,480 L 606,479 L 607,478 L 607,477 L 608,476 L 609,475 L 609,474 L 610,473 L 611,472 L 611,471 L 612,470 L 612,469 L 613,468 L 613,467 L 614,466 L 615,465 L 615,464 L 615,463 L 616,462 L 616,461 L 617,460 L 617,459 L 618,458 L 618,457 L 619,456 L 619,455 L 620,454 L 620,453 L 620,452 L 621,451 L 621,450 L 621,449 L 622,448 L 622,447 L 622,446 L 623,445 L 623,444 L 623,443 L 624,442 L 624,441 L 624,440 L 624,439 L 625,438 L 625,437 L 625,436 L 625,435 L 625,434 L 626,433 L 626,432 L 626,431 L 626,430 L 626,429 L 626,428 L 626,427 L 627,426 L 627,425 L 627,424 L 627,423 L 627,422 L 627,421 L 627,420 L 627,419 L 627,418 L 627,417 L 627,416 L 627,415 L 627,414 L 627,413 L 627,412 L 627,411 L 627,410 L 627,409 L 627,408 L 627,407 L 627,406 L 627,405 L 627,404 L 627,403 L 627,402 L 627,401 L 627,400 L 627,399 L 627,398 L 626,397 L 626,396 L 626,395 L 626,394 L 626,393 L 626,392 L 625,391 L 625,390 L 625,389 L 625,388 L 624,387 L 624,386 L 624,385 L 624,384 L 624,383 L 623,382 L 623,381 L 623,380 L 622,379 L 622,378 L 622,377 L 622,376 L 621,375 L 621,374 L 621,373 L 620,372 L 620,371 L 619,370 L 619,369 L 619,368 L 618,367 L 618,366 L 617,365 L 617,364 L 616,363 L 616,362 L 616,361 L 615,360 L 615,359 L 614,358 L 614,357 L 613,356 L 612,355 L 612,354 L 611,353 L 611,352 L 610,351 L 609,350 L 609,349 L 608,348 L 607,347 L 607,346 L 606,345 L 605,344 L 604,343 L 604,342 L 603,341 L 602,340 L 601,339 L 601,338 L 600,337 L 599,336 L 598,335 L 597,334 L 596,333 L 595,332 L 594,331 L 593,330 L 592,329 L 591,328 L 590,327 L 589,326 L 588,325 L 587,324 L 586,323 L 585,322 L 584,322 L 583,321 L 582,320 L 581,319 L 580,318 L 579,318 L 578,317 L 577,316 L 576,316 L 575,315 L 574,314 L 573,314 L 572,313 L 571,312 L 570,312 L 569,311 L 568,310 L 567,310 L 566,309 L 565,309 L 564,308 L 563,308 L 562,307 L 561,307 L 560,306 L 559,306 L 558,305 L 557,305 L 556,304 L 555,304 L 554,304 L 553,303 L 552,303 L 551,303 L 550,302 L 549,302 L 548,301 L 547,301 L 546,301 L 545,300 L 544,300 L 543,300 L 542,300 L 541,299 L 540,299 L 539,299 L 538,298 L 537,298 L 536,298 L 535,298 L 534,298 L 533,297 L 532,297 L 531,297 L 530,297 L 529,297 L 528,296 L 527,296 L 526,296 L 525,296 L 524,296 L 523,296 L 522,296 L 521,296 L 520,295 L 519,295 L 518,295 L 517,295 L 516,295 L 515,295 L 514,295 L 513,295 L 512,295 L 511,295 L 510,295 L 509,295 L 508,295 L 507,295 L 506,295 L 505,295 L 504,295 L 503,295 L 502,295 L 501,295 Z" fill="#d9b8ff"></path><path d="M 769,240 L 768,241 L 767,241 L 766,241 L 765,241 L 764,241 L 763,241 L 762,241 L 761,242 L 760,242 L 759,242 L 758,242 L 757,242 L 756,243 L 755,243 L 754,243 L 753,243 L 752,244 L 751,244 L 750,244 L 749,244 L 748,245 L 747,245 L 746,245 L 745,246 L 744,246 L 743,246 L 742,246 L 741,247 L 740,247 L 739,247 L 738,248 L 737,248 L 736,249 L 735,249 L 734,249 L 733,250 L 732,250 L 731,250 L 730,251 L 729,251 L 728,251 L 727,252 L 726,252 L 725,253 L 724,253 L 723,253 L 722,254 L 721,254 L 720,255 L 719,255 L 718,256 L 717,256 L 716,257 L 715,257 L 714,258 L 713,258 L 712,258 L 711,259 L 710,259 L 709,260 L 708,260 L 707,261 L 706,261 L 705,262 L 704,262 L 703,263 L 702,264 L 701,264 L 700,265 L 699,265 L 698,266 L 697,266 L 696,267 L 695,268 L 694,268 L 693,269 L 692,269 L 691,270 L 690,271 L 689,271 L 688,272 L 687,273 L 686,273 L 685,274 L 684,275 L 683,275 L 682,276 L 681,277 L 680,277 L 679,278 L 678,279 L 677,280 L 676,280 L 675,281 L 674,282 L 673,283 L 672,283 L 671,284 L 670,285 L 669,286 L 668,287 L 667,287 L 666,288 L 665,289 L 664,290 L 663,291 L 662,292 L 661,293 L 660,294 L 659,294 L 658,295 L 657,296 L 656,297 L 655,298 L 654,299 L 653,300 L 652,301 L 651,302 L 650,303 L 649,304 L 648,305 L 647,306 L 646,307 L 646,308 L 645,309 L 644,310 L 643,311 L 642,312 L 641,313 L 640,314 L 639,315 L 639,316 L 638,317 L 637,318 L 636,319 L 635,320 L 635,321 L 634,322 L 633,323 L 632,324 L 632,325 L 631,326 L 630,327 L 629,328 L 629,329 L 628,330 L 627,331 L 627,332 L 626,333 L 625,334 L 625,335 L 624,336 L 623,337 L 624,338 L 624,339 L 625,340 L 626,341 L 626,342 L 627,343 L 627,344 L 628,345 L 628,346 L 629,347 L 630,348 L 630,349 L 631,350 L 631,351 L 632,352 L 632,353 L 633,354 L 633,355 L 634,356 L 634,357 L 634,358 L 635,359 L 635,360 L 636,361 L 636,362 L 636,363 L 637,364 L 637,365 L 638,366 L 638,367 L 638,368 L 639,369 L 639,370 L 639,371 L 640,372 L 640,373 L 640,374 L 641,375 L 641,376 L 641,377 L 641,378 L 642,379 L 642,380 L 642,381 L 642,382 L 643,383 L 643,384 L 643,385 L 643,386 L 643,387 L 644,388 L 644,389 L 644,390 L 644,391 L 644,392 L 644,393 L 645,394 L 645,395 L 645,396 L 645,397 L 645,398 L 645,399 L 645,400 L 645,401 L 645,402 L 645,403 L 645,404 L 645,405 L 645,406 L 645,407 L 645,408 L 645,409 L 646,410 L 646,411 L 646,412 L 646,413 L 645,414 L 646,415 L 645,416 L 645,417 L 645,418 L 645,419 L 645,420 L 645,421 L 645,422 L 645,423 L 645,424 L 645,425 L 645,426 L 645,427 L 645,428 L 645,429 L 644,430 L 644,431 L 644,432 L 644,433 L 644,434 L 644,435 L 644,436 L 643,437 L 643,438 L 643,439 L 643,440 L 642,441 L 642,442 L 642,443 L 642,444 L 642,445 L 641,446 L 641,447 L 641,448 L 640,449 L 640,450 L 640,451 L 640,452 L 639,453 L 639,454 L 639,455 L 638,456 L 638,457 L 637,458 L 637,459 L 637,460 L 636,461 L 636,462 L 636,463 L 635,464 L 635,465 L 634,466 L 634,467 L 633,468 L 633,469 L 632,470 L 632,471 L 631,472 L 631,473 L 630,474 L 630,475 L 629,476 L 629,477 L 628,478 L 628,479 L 627,480 L 626,481 L 626,482 L 625,483 L 625,484 L 624,485 L 623,486 L 623,487 L 622,488 L 621,489 L 620,490 L 620,491 L 619,492 L 618,493 L 617,494 L 617,495 L 616,496 L 615,497 L 614,498 L 613,499 L 612,500 L 612,501 L 611,502 L 610,503 L 609,504 L 608,505 L 607,506 L 606,507 L 605,508 L 604,509 L 603,510 L 602,511 L 601,512 L 600,513 L 599,513 L 598,514 L 597,515 L 596,516 L 595,517 L 594,517 L 593,518 L 592,519 L 591,519 L 590,520 L 589,521 L 588,521 L 587,522 L 586,523 L 586,524 L 585,525 L 584,526 L 584,527 L 583,528 L 582,529 L 583,529 L 584,529 L 585,529 L 586,529 L 587,529 L 588,529 L 589,528 L 590,528 L 591,528 L 592,528 L 593,528 L 594,528 L 595,528 L 596,527 L 597,527 L 598,527 L 599,527 L 600,527 L 601,527 L 602,527 L 603,526 L 604,526 L 605,526 L 606,526 L 607,526 L 608,526 L 609,526 L 610,525 L 611,525 L 612,525 L 613,525 L 614,525 L 615,525 L 616,524 L 617,524 L 618,524 L 619,524 L 620,524 L 621,524 L 622,523 L 623,523 L 624,523 L 625,523 L 626,523 L 627,522 L 628,522 L 629,522 L 630,522 L 631,522 L 632,521 L 633,521 L 634,521 L 635,521 L 636,520 L 637,520 L 638,520 L 639,520 L 640,519 L 641,519 L 642,519 L 643,518 L 644,518 L 645,518 L 646,518 L 647,517 L 648,517 L 649,517 L 650,516 L 651,516 L 652,515 L 653,515 L 654,515 L 655,514 L 656,514 L 657,514 L 658,513 L 659,513 L 660,512 L 661,512 L 662,512 L 663,511 L 664,511 L 665,510 L 666,510 L 667,509 L 668,509 L 669,508 L 670,508 L 671,508 L 672,507 L 673,507 L 674,506 L 675,506 L 676,505 L 677,504 L 678,504 L 679,503 L 680,503 L 681,502 L 682,502 L 683,501 L 684,500 L 685,500 L 686,499 L 687,499 L 688,498 L 689,497 L 690,497 L 691,496 L 692,495 L 693,495 L 694,494 L 695,493 L 696,492 L 697,492 L 698,491 L 699,490 L 700,489 L 701,489 L 702,488 L 703,487 L 704,486 L 705,485 L 706,484 L 707,483 L 708,483 L 709,482 L 710,481 L 711,480 L 712,479 L 713,478 L 714,477 L 715,476 L 716,475 L 717,474 L 718,473 L 719,472 L 720,471 L 721,470 L 721,469 L 722,468 L 723,467 L 724,466 L 725,465 L 726,464 L 726,463 L 727,462 L 728,461 L 729,460 L 729,459 L 730,458 L 731,457 L 732,456 L 732,455 L 733,454 L 734,453 L 734,452 L 735,451 L 736,450 L 736,449 L 737,448 L 738,447 L 738,446 L 739,445 L 739,444 L 740,443 L 741,442 L 741,441 L 742,440 L 742,439 L 743,438 L 744,437 L 744,436 L 745,435 L 745,434 L 746,433 L 746,432 L 747,431 L 747,430 L 748,429 L 748,428 L 749,427 L 749,426 L 750,425 L 750,424 L 751,423 L 751,422 L 752,421 L 752,420 L 753,419 L 753,418 L 754,417 L 754,416 L 754,415 L 755,414 L 755,413 L 756,412 L 756,411 L 757,410 L 757,409 L 757,408 L 758,407 L 758,406 L 758,405 L 759,404 L 759,403 L 760,402 L 760,401 L 760,400 L 761,399 L 761,398 L 761,397 L 762,396 L 762,395 L 762,394 L 763,393 L 763,392 L 763,391 L 764,390 L 764,389 L 764,388 L 765,387 L 765,386 L 765,385 L 765,384 L 766,383 L 766,382 L 766,381 L 767,380 L 767,379 L 767,378 L 767,377 L 768,376 L 768,375 L 768,374 L 768,373 L 769,372 L 769,371 L 769,370 L 769,369 L 769,368 L 770,367 L 770,366 L 770,365 L 770,364 L 771,363 L 771,362 L 771,361 L 771,360 L 771,359 L 772,358 L 772,357 L 772,356 L 772,355 L 772,354 L 772,353 L 773,352 L 773,351 L 773,350 L 773,349 L 773,348 L 774,347 L 774,346 L 774,345 L 774,344 L 774,343 L 774,342 L 774,341 L 775,340 L 775,339 L 775,338 L 775,337 L 775,336 L 775,335 L 775,334 L 775,333 L 775,332 L 776,331 L 776,330 L 776,329 L 776,328 L 776,327 L 776,326 L 776,325 L 776,324 L 776,323 L 776,322 L 776,321 L 776,320 L 776,319 L 777,318 L 777,317 L 777,316 L 777,315 L 777,314 L 777,313 L 777,312 L 777,311 L 777,310 L 777,309 L 777,308 L 777,307 L 777,306 L 777,305 L 777,304 L 777,303 L 777,302 L 777,301 L 777,300 L 777,299 L 777,298 L 777,297 L 777,296 L 777,295 L 777,294 L 777,293 L 777,292 L 777,291 L 777,290 L 777,289 L 777,288 L 777,287 L 777,286 L 777,285 L 777,284 L 776,283 L 776,282 L 776,281 L 776,280 L 776,279 L 776,278 L 776,277 L 776,276 L 776,275 L 776,274 L 776,273 L 776,272 L 776,271 L 776,270 L 775,269 L 775,268 L 775,267 L 775,266 L 775,265 L 775,264 L 775,263 L 775,262 L 775,261 L 775,260 L 774,259 L 774,258 L 774,257 L 774,256 L 774,255 L 774,254 L 774,253 L 774,252 L 773,251 L 773,250 L 773,249 L 773,248 L 773,247 L 773,246 L 772,245 L 772,244 L 772,243 L 772,242 L 772,241 L 771,240 L 770,240 Z" fill="#d9b8ff"></path><path d="M 252,240 L 251,241 L 251,242 L 251,243 L 251,244 L 250,245 L 250,246 L 250,247 L 250,248 L 250,249 L 250,250 L 250,251 L 249,252 L 249,253 L 249,254 L 249,255 L 249,256 L 249,257 L 249,258 L 248,259 L 248,260 L 248,261 L 248,262 L 248,263 L 248,264 L 248,265 L 248,266 L 248,267 L 248,268 L 247,269 L 247,270 L 247,271 L 247,272 L 247,273 L 247,274 L 247,275 L 247,276 L 247,277 L 247,278 L 247,279 L 247,280 L 247,281 L 246,282 L 246,283 L 246,284 L 246,285 L 246,286 L 246,287 L 246,288 L 246,289 L 246,290 L 246,291 L 246,292 L 246,293 L 246,294 L 246,295 L 246,296 L 246,297 L 246,298 L 246,299 L 246,300 L 246,301 L 246,302 L 246,303 L 246,304 L 246,305 L 246,306 L 246,307 L 246,308 L 246,309 L 246,310 L 246,311 L 246,312 L 246,313 L 246,314 L 246,315 L 246,316 L 246,317 L 246,318 L 246,319 L 246,320 L 247,321 L 247,322 L 247,323 L 247,324 L 247,325 L 247,326 L 247,327 L 247,328 L 247,329 L 247,330 L 247,331 L 247,332 L 247,333 L 248,334 L 248,335 L 248,336 L 248,337 L 248,338 L 248,339 L 248,340 L 248,341 L 249,342 L 249,343 L 249,344 L 249,345 L 249,346 L 249,347 L 249,348 L 250,349 L 250,350 L 250,351 L 250,352 L 250,353 L 250,354 L 251,355 L 251,356 L 251,357 L 251,358 L 251,359 L 252,360 L 252,361 L 252,362 L 252,363 L 252,364 L 253,365 L 253,366 L 253,367 L 253,368 L 253,369 L 254,370 L 254,371 L 254,372 L 254,373 L 255,374 L 255,375 L 255,376 L 255,377 L 256,378 L 256,379 L 256,380 L 257,381 L 257,382 L 257,383 L 257,384 L 258,385 L 258,386 L 258,387 L 259,388 L 259,389 L 259,390 L 259,391 L 260,392 L 260,393 L 260,394 L 261,395 L 261,396 L 261,397 L 262,398 L 262,399 L 262,400 L 263,401 L 263,402 L 264,403 L 264,404 L 264,405 L 265,406 L 265,407 L 266,408 L 266,409 L 266,410 L 267,411 L 267,412 L 268,413 L 268,414 L 268,415 L 269,416 L 269,417 L 270,418 L 270,419 L 271,420 L 271,421 L 272,422 L 272,423 L 273,424 L 273,425 L 274,426 L 274,427 L 275,428 L 275,429 L 276,430 L 276,431 L 277,432 L 277,433 L 278,434 L 278,435 L 279,436 L 279,437 L 280,438 L 281,439 L 281,440 L 282,441 L 282,442 L 283,443 L 283,444 L 284,445 L 285,446 L 285,447 L 286,448 L 287,449 L 287,450 L 288,451 L 289,452 L 289,453 L 290,454 L 291,455 L 292,456 L 292,457 L 293,458 L 294,459 L 294,460 L 295,461 L 296,462 L 297,463 L 297,464 L 298,465 L 299,466 L 300,467 L 301,468 L 302,469 L 303,470 L 303,471 L 304,472 L 305,473 L 306,474 L 307,475 L 308,476 L 309,477 L 310,478 L 311,479 L 312,480 L 313,481 L 314,482 L 315,483 L 316,484 L 317,484 L 318,485 L 319,486 L 320,487 L 321,488 L 322,489 L 323,489 L 324,490 L 325,491 L 326,492 L 327,493 L 328,493 L 329,494 L 330,495 L 331,495 L 332,496 L 333,497 L 334,498 L 335,498 L 336,499 L 337,499 L 338,500 L 339,501 L 340,501 L 341,502 L 342,502 L 343,503 L 344,504 L 345,504 L 346,505 L 347,505 L 348,506 L 349,506 L 350,507 L 351,507 L 352,508 L 353,508 L 354,509 L 355,509 L 356,510 L 357,510 L 358,510 L 359,511 L 360,511 L 361,512 L 362,512 L 363,513 L 364,513 L 365,513 L 366,514 L 367,514 L 368,515 L 369,515 L 370,515 L 371,516 L 372,516 L 373,516 L 374,517 L 375,517 L 376,517 L 377,518 L 378,518 L 379,518 L 380,518 L 381,519 L 382,519 L 383,519 L 384,520 L 385,520 L 386,520 L 387,520 L 388,521 L 389,521 L 390,521 L 391,521 L 392,522 L 393,522 L 394,522 L 395,522 L 396,522 L 397,523 L 398,523 L 399,523 L 400,523 L 401,523 L 402,524 L 403,524 L 404,524 L 405,524 L 406,524 L 407,525 L 408,525 L 409,525 L 410,525 L 411,525 L 412,525 L 413,525 L 414,526 L 415,526 L 416,526 L 417,526 L 418,526 L 419,526 L 420,526 L 421,526 L 422,527 L 423,527 L 424,527 L 425,527 L 426,527 L 427,527 L 428,527 L 429,528 L 430,528 L 431,528 L 432,528 L 433,528 L 434,528 L 435,528 L 436,528 L 437,528 L 438,529 L 439,529 L 440,529 L 441,529 L 442,529 L 443,529 L 444,529 L 444,528 L 443,527 L 442,527 L 441,526 L 440,525 L 439,524 L 438,524 L 437,523 L 436,522 L 435,522 L 434,521 L 433,520 L 432,519 L 431,519 L 430,518 L 429,517 L 428,517 L 427,516 L 426,515 L 425,514 L 424,513 L 423,513 L 422,512 L 421,511 L 420,510 L 419,509 L 418,508 L 417,507 L 416,506 L 415,505 L 414,504 L 413,503 L 412,502 L 411,501 L 410,500 L 409,499 L 409,498 L 408,497 L 407,496 L 406,495 L 405,494 L 405,493 L 404,492 L 403,491 L 402,490 L 402,489 L 401,488 L 400,487 L 400,486 L 399,485 L 398,484 L 398,483 L 397,482 L 396,481 L 396,480 L 395,479 L 395,478 L 394,477 L 394,476 L 393,475 L 393,474 L 392,473 L 392,472 L 391,471 L 391,470 L 390,469 L 390,468 L 389,467 L 389,466 L 388,465 L 388,464 L 388,463 L 387,462 L 387,461 L 386,460 L 386,459 L 386,458 L 385,457 L 385,456 L 385,455 L 384,454 L 384,453 L 384,452 L 383,451 L 383,450 L 383,449 L 382,448 L 382,447 L 382,446 L 382,445 L 381,444 L 381,443 L 381,442 L 381,441 L 381,440 L 380,439 L 380,438 L 380,437 L 380,436 L 380,435 L 379,434 L 379,433 L 379,432 L 379,431 L 379,430 L 379,429 L 379,428 L 378,427 L 378,426 L 378,425 L 378,424 L 378,423 L 378,422 L 378,421 L 378,420 L 378,419 L 378,418 L 378,417 L 378,416 L 378,415 L 378,414 L 378,413 L 378,412 L 378,411 L 378,410 L 378,409 L 378,408 L 378,407 L 378,406 L 378,405 L 378,404 L 378,403 L 378,402 L 378,401 L 378,400 L 378,399 L 378,398 L 378,397 L 378,396 L 379,395 L 379,394 L 379,393 L 379,392 L 379,391 L 379,390 L 379,389 L 380,388 L 380,387 L 380,386 L 380,385 L 380,384 L 381,383 L 381,382 L 381,381 L 381,380 L 381,379 L 382,378 L 382,377 L 382,376 L 383,375 L 383,374 L 383,373 L 383,372 L 384,371 L 384,370 L 384,369 L 385,368 L 385,367 L 385,366 L 386,365 L 386,364 L 387,363 L 387,362 L 387,361 L 388,360 L 388,359 L 389,358 L 389,357 L 390,356 L 390,355 L 390,354 L 391,353 L 391,352 L 392,351 L 392,350 L 393,349 L 393,348 L 394,347 L 394,346 L 395,345 L 396,344 L 396,343 L 397,342 L 397,341 L 398,340 L 398,339 L 399,338 L 399,337 L 398,336 L 398,335 L 397,334 L 396,333 L 396,332 L 395,331 L 394,330 L 394,329 L 393,328 L 392,327 L 392,326 L 391,325 L 390,324 L 389,323 L 389,322 L 388,321 L 387,320 L 386,319 L 386,318 L 385,317 L 384,316 L 383,315 L 382,314 L 381,313 L 381,312 L 380,311 L 379,310 L 378,309 L 377,308 L 376,307 L 375,306 L 374,305 L 373,304 L 372,303 L 372,302 L 371,301 L 370,300 L 369,299 L 368,298 L 367,298 L 366,297 L 365,296 L 364,295 L 363,294 L 362,293 L 361,292 L 360,291 L 359,290 L 358,289 L 357,289 L 356,288 L 355,287 L 354,286 L 353,285 L 352,284 L 351,284 L 350,283 L 349,282 L 348,281 L 347,281 L 346,280 L 345,279 L 344,278 L 343,278 L 342,277 L 341,276 L 340,276 L 339,275 L 338,274 L 337,274 L 336,273 L 335,272 L 334,272 L 333,271 L 332,270 L 331,270 L 330,269 L 329,268 L 328,268 L 327,267 L 326,267 L 325,266 L 324,265 L 323,265 L 322,264 L 321,264 L 320,263 L 319,263 L 318,262 L 317,262 L 316,261 L 315,260 L 314,260 L 313,259 L 312,259 L 311,259 L 310,258 L 309,258 L 308,257 L 307,257 L 306,256 L 305,256 L 304,255 L 303,255 L 302,254 L 301,254 L 300,254 L 299,253 L 298,253 L 297,252 L 296,252 L 295,252 L 294,251 L 293,251 L 292,250 L 291,250 L 290,250 L 289,249 L 288,249 L 287,249 L 286,248 L 285,248 L 284,248 L 283,247 L 282,247 L 281,247 L 280,246 L 279,246 L 278,246 L 277,245 L 276,245 L 275,245 L 274,244 L 273,244 L 272,244 L 271,244 L 270,243 L 269,243 L 268,243 L 267,243 L 266,243 L 265,242 L 264,242 L 263,242 L 262,242 L 261,242 L 260,241 L 259,241 L 258,241 L 257,241 L 256,241 L 255,241 L 254,240 L 253,240 Z" fill="#d9b8ff"></path></svg><style>@media (prefers-color-scheme: light) { :root { filter: none; } }
@media (prefers-color-scheme: dark) { :root { filter: none; } }
</style></svg>